<svg width="125" height="116" viewBox="0 0 125 116" fill="none" xmlns="http://www.w3.org/2000/svg">
<path fill-rule="evenodd" clip-rule="evenodd" d="M0.5 53.8966C0.500002 31.1665 12.7317 11.2932 30.972 0.5V7.28474C29.4561 8.31208 27.993 9.41143 26.5876 10.5779C28.8618 12.1251 30.3554 14.7342 30.3554 17.6922C30.3554 17.9464 30.3444 18.1979 30.3228 18.4465H24.5228C24.5882 18.2061 24.6231 17.9533 24.6231 17.6922C24.6231 16.1908 23.4686 14.959 21.999 14.8361C19.4363 17.4927 17.1326 20.4007 15.1285 23.5196C18.3843 24.744 20.7009 27.8867 20.7009 31.5706C20.7009 31.8247 20.6899 32.0763 20.6683 32.3248H14.8683C14.9337 32.0845 14.9686 31.8316 14.9686 31.5706C14.9686 30.0112 13.7232 28.7426 12.1728 28.7052C8.3718 36.2841 6.23236 44.8405 6.23236 53.8966C6.23236 56.0768 6.35635 58.228 6.59767 60.3435L21.7087 38.2582L42.3976 56.9287L60.2246 35.1197L80.9071 53.7844L101.6 29.4251L117.928 44.1606C116.249 34.5331 112.123 25.7465 106.213 18.4651C104.785 18.6282 103.676 19.8409 103.676 21.3127C103.676 21.5737 103.711 21.8266 103.776 22.0669H102.443H97.9762H96.6431C96.7085 21.8266 96.7434 21.5737 96.7434 21.3127C96.7434 19.7297 95.4601 18.4465 93.8772 18.4465C92.2942 18.4465 91.011 19.7297 91.011 21.3127C91.011 21.5737 91.0459 21.8266 91.1113 22.0669H85.3113C85.2897 21.8184 85.2786 21.5668 85.2786 21.3127C85.2786 16.5638 89.1283 12.7141 93.8772 12.7141C96.3828 12.7141 98.638 13.7858 100.21 15.4958C100.766 14.8905 101.408 14.3652 102.116 13.9391C100.071 11.9116 97.8717 10.0399 95.5365 8.34345V1.42192C112.939 12.4014 124.5 31.7989 124.5 53.8966C124.5 88.1382 96.7417 115.897 62.5 115.897C28.2583 115.897 0.500001 88.1382 0.5 53.8966ZM38.7654 61.3723L22.7366 46.9073L8.09464 68.3071C9.95526 75.3503 13.1473 81.8525 17.3851 87.5282L38.7654 61.3723ZM37.8373 104.485C31.5059 101.393 25.841 97.147 21.1164 92.0211L60.8531 43.4084L77.1734 58.1364L77.8 57.442L37.8373 104.485ZM118.741 52.1446L118.507 52.404L102.145 37.6381L43.3686 106.828C49.3409 108.987 55.783 110.164 62.5 110.164C93.5758 110.164 118.768 84.9724 118.768 53.8966C118.768 53.3104 118.759 52.7264 118.741 52.1446ZM23.9882 52.5389L28.3795 56.2236L13.6407 73.7886L9.24945 70.1039L23.9882 52.5389ZM34.6196 61.4598L30.2284 57.7751L18.375 71.9014L22.7662 75.5861L34.6196 61.4598ZM58.8978 51.6338L63.2891 55.3185L32.648 91.8352L28.2567 88.1505L58.8978 51.6338ZM69.5292 60.5546L65.138 56.8699L40.4954 86.2378L44.8867 89.9225L69.5292 60.5546ZM101.415 44.0912L105.806 47.7759L58.2927 104.4L53.9014 100.715L101.415 44.0912ZM112.046 53.0121L107.655 49.3274L71.0017 93.0087L75.393 96.6934L112.046 53.0121ZM113.895 54.5635L118.286 58.2482L88.8086 93.3781L84.4174 89.6934L113.895 54.5635ZM46.0506 27.6484C46.0506 29.2314 44.7674 30.5146 43.1844 30.5146C41.6015 30.5146 40.3183 29.2314 40.3183 27.6484C40.3183 26.0655 41.6015 24.7822 43.1844 24.7822C44.7674 24.7822 46.0506 26.0655 46.0506 27.6484ZM51.783 27.6484C51.783 32.3973 47.9333 36.247 43.1844 36.247C38.4356 36.247 34.5859 32.3973 34.5859 27.6484C34.5859 22.8996 38.4356 19.0499 43.1844 19.0499C47.9333 19.0499 51.783 22.8996 51.783 27.6484Z" fill="#FAF8F5"/>
</svg>
