<svg width="21" height="16" viewBox="0 0 21 16" fill="none" xmlns="http://www.w3.org/2000/svg">
<path d="M0.482832 15.0144C0.482832 15.0144 0.482997 15.0144 0.482832 15.0144H19.8435C20.0389 15.0144 20.1975 14.8558 20.1975 14.6604V14.6602L20.1887 2.62498C20.1885 2.42933 20.0297 2.2709 19.8342 2.27106C19.7858 2.27106 19.7379 2.28095 19.6936 2.30038L18.6911 2.73615L18.7027 1.08413C18.7038 0.92306 18.5961 0.781754 18.4408 0.739593C15.1459 -0.151052 12.707 1.35257 10.1621 2.29461C8.14255 1.54693 6.18945 0.445944 3.82326 0.468374C3.20814 0.474302 2.56502 0.555988 1.88552 0.739619C1.73021 0.781615 1.62267 0.923086 1.62399 1.08382L1.63535 2.73682L0.631884 2.30024C0.452372 2.22234 0.24371 2.30453 0.165797 2.48371C0.146363 2.52818 0.136482 2.57627 0.136317 2.62469L0.128906 14.6599C0.128742 14.8557 0.287338 15.0143 0.482825 15.0143L0.482832 15.0144ZM18.6128 13.1412C18.6159 13.1233 18.6172 13.1048 18.6176 13.0867L18.6853 3.51117L19.4807 3.16549L19.4889 14.3065L11.4556 14.3066C13.0144 13.4898 14.8674 12.8891 18.206 13.4343C18.3992 13.4654 18.5812 13.3346 18.6128 13.1415L18.6128 13.1412ZM10.5171 2.91852C12.5586 2.15237 14.3504 1.16046 16.4816 1.17661C16.9651 1.18023 17.4664 1.23589 17.9919 1.35777L17.9121 12.6729C14.2571 12.1622 12.2022 13.0643 10.5171 14.0154L10.5171 2.91852ZM3.84346 1.17661C5.97423 1.1608 7.76656 2.15339 9.80921 2.91953V14.0167C8.12375 13.0649 6.07056 12.1619 2.41211 12.6728L2.33421 1.35726C2.85923 1.23572 3.36023 1.17989 3.8436 1.17643L3.84346 1.17661ZM0.844276 3.16575L1.6404 3.51209L1.70627 13.0868C1.70776 13.2823 1.86734 13.4397 2.06299 13.4386C2.08111 13.4384 2.09939 13.4369 2.1175 13.4338C5.45824 12.8887 7.31002 13.4893 8.86828 14.3061H0.837505L0.844276 3.16575Z" fill="#FAF8F5"/>
</svg>
