<svg width="330" height="334" viewBox="0 0 330 334" fill="none" xmlns="http://www.w3.org/2000/svg">
<path d="M165.012 4.6228L166.004 2.87427L166.438 3.1209L166.498 3.01539L166.557 3.11993L166.993 2.87414L167.98 4.62268L167.544 4.86847L168.531 6.617L168.967 6.37121L169.954 8.11974L169.518 8.36553L170.505 10.1141L170.941 9.86827L171.928 11.6168L171.493 11.8626L172.48 13.6111L172.915 13.3653L173.902 15.1139L173.467 15.3597L174.454 17.1082L174.889 16.8624L175.876 18.6109L175.441 18.8567L176.428 20.6053L176.863 20.3595L177.85 22.108L177.415 22.3538L178.402 24.1023L178.837 23.8565L179.824 25.6051L179.389 25.8509L180.376 27.5994L180.811 27.3536L181.798 29.1021L181.363 29.3479L182.35 31.0965L182.785 30.8507L183.772 32.5992L183.337 32.845L184.324 34.5935L184.759 34.3477L185.746 36.0963L185.311 36.3421L186.298 38.0906L186.734 37.8448L187.721 39.5933L187.285 39.8391L188.272 41.5877L188.708 41.3419L189.695 43.0904L189.259 43.3362L190.246 45.0847L190.682 44.839L191.669 46.5875L191.233 46.8333L192.22 48.5818L192.656 48.336L193.643 50.0846L193.207 50.3303L194.194 52.0789L194.63 51.8331L195.617 53.5816L195.181 53.8274L196.169 55.5759L196.604 55.3302L197.591 57.0787L197.156 57.3245L198.143 59.073L198.578 58.8272L199.565 60.5758L199.13 60.8215L200.117 62.5701L200.552 62.3243L201.539 64.0728L201.104 64.3186L202.091 66.0672L202.526 65.8214L203.513 67.5699L203.078 67.8157L204.065 69.5642L204.5 69.3184L205.487 71.067L205.052 71.3127L206.039 73.0613L206.474 72.8155L207.461 74.564L207.026 74.8098L208.013 76.5583L208.448 76.3126L209.435 78.0611L209 78.3069L209.987 80.0554L210.422 79.8096L211.41 81.5582L210.974 81.8039L211.961 83.5525L212.397 83.3067L213.384 85.0552L212.948 85.301L213.935 87.0495L214.371 86.8038L215.358 88.5523L214.922 88.7981L215.909 90.5466L216.345 90.3008L217.332 92.0494L216.896 92.2952L217.883 94.0437L218.319 93.7979L219.306 95.5464L218.87 95.7922L219.857 97.5407L220.293 97.295L221.28 99.0435L220.844 99.2893L221.832 101.038L222.267 100.792L223.254 102.541L222.819 102.786L223.806 104.535L224.241 104.289L225.228 106.038L224.793 106.283L225.78 108.032L226.215 107.786L227.202 109.535L226.767 109.78L227.754 111.529L228.189 111.283L229.176 113.032L228.741 113.278L229.728 115.026L230.163 114.78L231.15 116.529L230.715 116.775L231.702 118.523L232.137 118.277L233.124 120.026L232.689 120.272L233.676 122.02L234.111 121.774L235.098 123.523L234.663 123.769L235.65 125.517L236.085 125.271L237.073 127.02L236.637 127.266L237.624 129.014L238.06 128.769L239.047 130.517L238.611 130.763L239.598 132.511L240.034 132.266L241.021 134.014L240.585 134.26L241.572 136.008L242.008 135.763L242.995 137.511L242.559 137.757L243.546 139.506L243.982 139.26L244.969 141.008L244.533 141.254L245.52 143.003L245.956 142.757L246.943 144.505L246.507 144.751L247.495 146.5L247.93 146.254L248.917 148.002L248.482 148.248L249.469 149.997L249.904 149.751L250.891 151.499L250.456 151.745L251.443 153.494L251.878 153.248L252.865 154.997L252.43 155.242L253.417 156.991L253.852 156.745L254.839 158.494L254.404 158.739L255.391 160.488L255.826 160.242L256.813 161.991L256.378 162.236L257.365 163.985L257.8 163.739L258.787 165.488L258.352 165.734L259.339 167.482L259.774 167.236L260.761 168.985L260.326 169.231L261.313 170.979L261.748 170.733L262.736 172.482L262.3 172.728L263.287 174.476L263.723 174.23L264.71 175.979L264.274 176.225L265.261 177.973L265.697 177.727L266.684 179.476L266.248 179.722L267.235 181.47L267.671 181.225L268.658 182.973L268.222 183.219L268.295 183.347H268.142V183.847H266.125V183.347H264.108V183.847H262.09V183.347H260.073V183.847H258.056V183.347H256.038V183.847H254.021V183.347H252.004V183.847H249.986V183.347H247.969V183.847H245.952V183.347H243.934V183.847H241.917V183.347H239.9V183.847H237.882V183.347H235.865V183.847H233.848V183.347H231.83V183.847H229.813V183.347H227.796V183.847H225.778V183.347H223.761V183.847H221.744V183.347H219.726V183.847H217.709V183.347H215.692V183.847H213.674V183.347H211.657V183.847H209.64V183.347H207.622V183.847H205.605V183.347H203.588V183.847H201.57V183.347H199.553V183.847H197.536V183.347H195.518V183.847H193.501V183.347H191.484V183.847H189.466V183.347H187.449V183.847H185.432V183.347H183.414V183.847H181.397V183.347H179.38V183.847H177.362V183.347H175.345V183.847H173.328V183.347H171.31V183.847H169.293V183.347H167.276V183.847H165.258V183.347H163.241V183.847H161.224V183.347H159.206V183.847H157.189V183.347H155.172V183.847H153.154V183.347H151.137V183.847H149.12V183.347H147.102V183.847H145.085V183.347H143.068V183.847H141.05V183.347H139.033V183.847H137.016V183.347H134.998V183.847H132.981V183.347H130.964V183.847H128.946V183.347H126.929V183.847H124.912V183.347H122.894V183.847H120.877V183.347H118.86V183.847H116.842V183.347H114.825V183.847H112.808V183.347H110.79V183.847H108.773V183.347H106.756V183.847H104.738V183.347H102.721V183.847H100.704V183.347H98.6862V183.847H96.6689V183.347H94.6515V183.847H92.6342V183.347H90.6169V183.847H88.5995V183.347H86.5822V183.847H84.5649V183.347H82.5475V183.847H80.5302V183.347H78.5128V183.847H76.4955V183.347H74.4782V183.847H72.4608V183.347H70.4435V183.847H68.4262V183.347H66.4088V183.847H64.3915V183.347H64.2411L64.3135 183.22L63.8786 182.973L64.8701 181.225L65.305 181.471L66.2965 179.723L65.8616 179.476L66.8531 177.727L67.288 177.974L68.2795 176.226L67.8446 175.979L68.8361 174.23L69.271 174.477L70.2625 172.729L69.8276 172.482L70.8191 170.733L71.254 170.98L72.2455 169.231L71.8106 168.985L72.8021 167.236L73.237 167.483L74.2285 165.734L73.7936 165.488L74.7851 163.739L75.22 163.986L76.2116 162.237L75.7766 161.991L76.7681 160.242L77.2031 160.489L78.1946 158.74L77.7596 158.494L78.7511 156.745L79.1861 156.992L80.1776 155.243L79.7426 154.997L80.7341 153.248L81.1691 153.495L82.1606 151.746L81.7256 151.499L82.7171 149.751L83.1521 149.998L84.1436 148.249L83.7086 148.002L84.7001 146.254L85.1351 146.501L86.1266 144.752L85.6917 144.505L86.6832 142.757L87.1181 143.003L88.1096 141.255L87.6747 141.008L88.6662 139.26L89.1011 139.506L90.0926 137.758L89.6577 137.511L90.6492 135.763L91.0841 136.009L92.0756 134.261L91.6407 134.014L92.6322 132.266L93.0671 132.512L94.0586 130.764L93.6237 130.517L94.6152 128.769L95.0501 129.015L96.0416 127.267L95.6067 127.02L96.5982 125.272L97.0331 125.518L98.0247 123.77L97.5897 123.523L98.5812 121.774L99.0162 122.021L100.008 120.273L99.5727 120.026L100.564 118.277L100.999 118.524L101.991 116.775L101.556 116.529L102.547 114.78L102.982 115.027L103.974 113.278L103.539 113.032L104.53 111.283L104.965 111.53L105.957 109.781L105.522 109.535L106.513 107.786L106.948 108.033L107.94 106.284L107.505 106.038L108.496 104.289L108.931 104.536L109.923 102.787L109.488 102.541L110.479 100.792L110.914 101.039L111.906 99.2902L111.471 99.0435L112.462 97.295L112.897 97.5416L113.889 95.7931L113.454 95.5465L114.445 93.7979L114.88 94.0446L115.872 92.296L115.437 92.0494L116.428 90.3009L116.863 90.5475L117.855 88.799L117.42 88.5523L118.411 86.8038L118.846 87.0504L119.838 85.3019L119.403 85.0553L120.394 83.3067L120.829 83.5534L121.821 81.8048L121.386 81.5582L122.377 79.8097L122.812 80.0563L123.804 78.3078L123.369 78.0611L124.36 76.3126L124.795 76.5592L125.787 74.8107L125.352 74.5641L126.343 72.8155L126.778 73.0622L127.77 71.3136L127.335 71.067L128.326 69.3185L128.761 69.5651L129.753 67.8166L129.318 67.5699L130.309 65.8214L130.744 66.068L131.736 64.3195L131.301 64.0729L132.292 62.3243L132.727 62.571L133.719 60.8224L133.284 60.5758L134.275 58.8273L134.71 59.0739L135.702 57.3254L135.267 57.0788L136.258 55.3302L136.693 55.5769L137.685 53.8283L137.25 53.5817L138.241 51.8332L138.676 52.0798L139.668 50.3313L139.233 50.0846L140.224 48.3361L140.659 48.5827L141.651 46.8342L141.216 46.5876L142.207 44.839L142.642 45.0857L143.634 43.3371L143.199 43.0905L144.19 41.342L144.625 41.5886L145.617 39.8401L145.182 39.5934L146.173 37.8449L146.608 38.0915L147.6 36.343L147.165 36.0964L148.156 34.3478L148.591 34.5945L149.583 32.8459L149.148 32.5993L150.139 30.8508L150.574 31.0974L151.566 29.3489L151.131 29.1022L152.122 27.3537L152.557 27.6003L153.549 25.8518L153.114 25.6052L154.105 23.8567L154.54 24.1033L155.532 22.3547L155.097 22.1081L156.088 20.3596L156.523 20.6062L157.515 18.8577L157.08 18.6111L158.071 16.8625L158.506 17.1092L159.498 15.3606L159.063 15.114L160.055 13.3655L160.489 13.6121L161.481 11.8636L161.046 11.6169L162.038 9.86839L162.472 10.115L163.464 8.36649L163.029 8.11986L164.021 6.37133L164.455 6.61796L165.447 4.86943L165.012 4.6228Z" fill="white" fill-opacity="0.07" stroke="#FAF8F5" stroke-dasharray="2 2"/>
<path d="M165.021 4.59642L166.007 2.86547L166.442 3.1131L166.501 3.00957L166.56 3.11306L166.994 2.86543L167.981 4.59638L167.547 4.84401L168.533 6.57496L168.968 6.32733L169.955 8.05827L169.52 8.3059L170.507 10.0368L170.941 9.78922L171.928 11.5202L171.494 11.7678L172.481 13.4987L172.915 13.2511L173.902 14.9821L173.467 15.2297L174.454 16.9606L174.889 16.713L175.875 18.444L175.441 18.6916L176.428 20.4225L176.862 20.1749L177.849 21.9058L177.415 22.1535L178.401 23.8844L178.836 23.6368L179.823 25.3677L179.388 25.6154L180.375 27.3463L180.809 27.0987L181.796 28.8296L181.362 29.0773L182.349 30.8082L182.783 30.5606L183.77 32.2915L183.335 32.5392L184.322 34.2701L184.757 34.0225L185.743 35.7534L185.309 36.0011L186.296 37.732L186.73 37.4844L187.717 39.2153L187.283 39.4629L188.269 41.1939L188.704 40.9463L189.69 42.6772L189.256 42.9248L190.243 44.6558L190.677 44.4082L191.664 46.1391L191.23 46.3867L192.216 48.1177L192.651 47.8701L193.638 49.601L193.203 49.8486L194.19 51.5796L194.624 51.3319L195.611 53.0629L195.177 53.3105L196.164 55.0415L196.598 54.7938L197.585 56.5248L197.15 56.7724L198.137 58.5034L198.572 58.2557L199.558 59.9867L199.124 60.2343L200.111 61.9653L200.545 61.7176L201.532 63.4486L201.098 63.6962L202.084 65.4271L202.519 65.1795L203.506 66.9105L203.071 67.1581L204.058 68.889L204.492 68.6414L205.479 70.3724L205.045 70.62L206.032 72.3509L206.466 72.1033L207.453 73.8343L207.018 74.0819L208.005 75.8128L208.44 75.5652L209.426 77.2962L208.992 77.5438L209.979 79.2747L210.413 79.0271L211.4 80.758L210.966 81.0057L211.952 82.7366L212.387 82.489L213.373 84.2199L212.939 84.4676L213.926 86.1985L214.36 85.9509L215.347 87.6818L214.913 87.9295L215.899 89.6604L216.334 89.4128L217.321 91.1437L216.886 91.3913L217.873 93.1223L218.307 92.8747L219.294 94.6056L218.86 94.8532L219.847 96.5842L220.281 96.3365L221.268 98.0675L220.833 98.3151L221.82 100.046L222.255 99.7984L223.241 101.529L222.807 101.777L223.794 103.508L224.228 103.26L225.215 104.991L224.781 105.239L225.767 106.97L226.202 106.722L227.189 108.453L226.754 108.701L227.741 110.432L228.175 110.184L229.162 111.915L228.728 112.163L228.795 112.281H228.669V112.781H226.695V112.281H224.721V112.781H222.748V112.281H220.774V112.781H218.801V112.281H216.827V112.781H214.854V112.281H212.88V112.781H210.906V112.281H208.933V112.781H206.959V112.281H204.986V112.781H203.012V112.281H201.039V112.781H199.065V112.281H197.091V112.781H195.118V112.281H193.144V112.781H191.171V112.281H189.197V112.781H187.223V112.281H185.25V112.781H183.276V112.281H181.303V112.781H179.329V112.281H177.356V112.781H175.382V112.281H173.408V112.781H171.435V112.281H169.461V112.781H167.488V112.281H165.514V112.781H163.541V112.281H161.567V112.781H159.593V112.281H157.62V112.781H155.646V112.281H153.673V112.781H151.699V112.281H149.725V112.781H147.752V112.281H145.778V112.781H143.805V112.281H141.831V112.781H139.858V112.281H137.884V112.781H135.91V112.281H133.937V112.781H131.963V112.281H129.99V112.781H128.016V112.281H126.042V112.781H124.069V112.281H122.095V112.781H120.122V112.281H118.148V112.781H116.175V112.281H114.201V112.781H112.227V112.281H110.254V112.781H108.28V112.281H106.307V112.781H104.333V112.281H104.207L104.274 112.163L103.84 111.915L104.826 110.184L105.261 110.432L106.248 108.701L105.813 108.453L106.8 106.722L107.234 106.97L108.221 105.239L107.787 104.991L108.774 103.26L109.208 103.508L110.195 101.777L109.76 101.529L110.747 99.7985L111.182 100.046L112.168 98.3152L111.734 98.0675L112.721 96.3366L113.155 96.5842L114.142 94.8533L113.708 94.6056L114.694 92.8747L115.129 93.1223L116.115 91.3914L115.681 91.1437L116.668 89.4128L117.102 89.6604L118.089 87.9295L117.655 87.6818L118.641 85.9509L119.076 86.1985L120.063 84.4676L119.628 84.22L120.615 82.489L121.049 82.7366L122.036 81.0057L121.602 80.7581L122.589 79.0271L123.023 79.2747L124.01 77.5438L123.575 77.2962L124.562 75.5652L124.997 75.8129L125.983 74.0819L125.549 73.8343L126.536 72.1033L126.97 72.351L127.957 70.62L127.523 70.3724L128.509 68.6414L128.944 68.8891L129.931 67.1581L129.496 66.9105L130.483 65.1795L130.917 65.4272L131.904 63.6962L131.47 63.4486L132.457 61.7176L132.891 61.9653L133.878 60.2343L133.443 59.9867L134.43 58.2558L134.865 58.5034L135.851 56.7724L135.417 56.5248L136.404 54.7939L136.838 55.0415L137.825 53.3105L137.391 53.0629L138.377 51.332L138.812 51.5796L139.798 49.8487L139.364 49.601L140.351 47.8701L140.785 48.1177L141.772 46.3868L141.338 46.1391L142.324 44.4082L142.759 44.6558L143.746 42.9249L143.311 42.6772L144.298 40.9463L144.732 41.1939L145.719 39.463L145.285 39.2153L146.272 37.4844L146.706 37.732L147.693 36.0011L147.258 35.7534L148.245 34.0225L148.68 34.2701L149.666 32.5392L149.232 32.2915L150.219 30.5606L150.653 30.8082L151.64 29.0773L151.206 28.8297L152.192 27.0987L152.627 27.3463L153.614 25.6154L153.179 25.3678L154.166 23.6368L154.6 23.8845L155.587 22.1535L155.153 21.9059L156.14 20.1749L156.574 20.4226L157.561 18.6916L157.126 18.444L158.113 16.713L158.548 16.9607L159.534 15.2297L159.1 14.9821L160.087 13.2511L160.521 13.4988L161.508 11.7678L161.074 11.5202L162.06 9.78926L162.495 10.0369L163.481 8.30594L163.047 8.05831L164.034 6.32737L164.468 6.575L165.455 4.84405L165.021 4.59642Z" fill="white" fill-opacity="0.07" stroke="#FAF8F5" stroke-dasharray="2 2"/>
<path d="M26.6248 249.734L166.5 4.02134L306.375 249.734H26.6248Z" fill="white" fill-opacity="0.07" stroke="#3BD39D" stroke-width="2"/>
<path d="M157.963 214.877V225.743H156.281V214.877H157.963Z" fill="#FAF8F5"/>
<path d="M159.611 220.287C159.611 219.224 159.842 218.27 160.304 217.426C160.777 216.581 161.411 215.925 162.208 215.456C163.014 214.976 163.895 214.736 164.849 214.736C165.941 214.736 166.91 215.023 167.756 215.596C168.611 216.159 169.231 216.962 169.615 218.004H167.593C167.328 217.431 166.959 217.003 166.487 216.722C166.015 216.441 165.469 216.3 164.849 216.3C164.17 216.3 163.565 216.461 163.034 216.785C162.503 217.108 162.085 217.571 161.78 218.176C161.485 218.781 161.337 219.484 161.337 220.287C161.337 221.089 161.485 221.793 161.78 222.397C162.085 223.002 162.503 223.471 163.034 223.805C163.565 224.128 164.17 224.289 164.849 224.289C165.469 224.289 166.015 224.149 166.487 223.867C166.959 223.586 167.328 223.158 167.593 222.585H169.615C169.231 223.627 168.611 224.43 167.756 224.993C166.91 225.556 165.941 225.837 164.849 225.837C163.885 225.837 163.005 225.603 162.208 225.134C161.411 224.654 160.777 223.992 160.304 223.148C159.842 222.304 159.611 221.35 159.611 220.287Z" fill="#FAF8F5"/>
<path d="M174.534 225.884C173.895 225.884 173.32 225.764 172.808 225.524C172.307 225.274 171.908 224.941 171.613 224.524C171.318 224.096 171.161 223.622 171.141 223.101H172.882C172.911 223.466 173.074 223.773 173.369 224.023C173.674 224.263 174.052 224.383 174.505 224.383C174.977 224.383 175.341 224.289 175.597 224.102C175.862 223.904 175.995 223.653 175.995 223.351C175.995 223.028 175.848 222.788 175.553 222.632C175.267 222.476 174.81 222.304 174.18 222.116C173.571 221.939 173.074 221.767 172.69 221.6C172.307 221.433 171.972 221.178 171.687 220.834C171.411 220.49 171.274 220.037 171.274 219.474C171.274 219.015 171.402 218.598 171.657 218.223C171.913 217.837 172.277 217.535 172.749 217.316C173.231 217.097 173.782 216.988 174.402 216.988C175.326 216.988 176.069 217.238 176.63 217.738C177.2 218.228 177.505 218.9 177.544 219.755H175.862C175.833 219.369 175.685 219.062 175.42 218.833C175.154 218.603 174.795 218.489 174.343 218.489C173.9 218.489 173.561 218.577 173.325 218.755C173.089 218.932 172.97 219.166 172.97 219.458C172.97 219.687 173.049 219.88 173.207 220.037C173.364 220.193 173.556 220.318 173.782 220.412C174.008 220.495 174.343 220.605 174.785 220.74C175.375 220.907 175.857 221.079 176.231 221.256C176.615 221.423 176.944 221.673 177.22 222.007C177.495 222.34 177.638 222.783 177.648 223.336C177.648 223.825 177.52 224.263 177.264 224.649C177.008 225.035 176.644 225.337 176.172 225.556C175.71 225.775 175.164 225.884 174.534 225.884Z" fill="#FAF8F5"/>
<path d="M137.517 144.262V154.251H135.81V147.41L132.634 154.251H131.451L128.26 147.41V154.251H126.553V144.262H128.395L132.05 152.095L135.69 144.262H137.517Z" fill="#FAF8F5"/>
<path d="M146.037 152.21H141.679L140.93 154.251H139.147L142.877 144.248H144.854L148.584 154.251H146.786L146.037 152.21ZM145.558 150.873L143.866 146.231L142.158 150.873H145.558Z" fill="#FAF8F5"/>
<path d="M158.758 154.251H157.051L151.913 146.792V154.251H150.206V144.248H151.913L157.051 151.693V144.248H158.758V154.251Z" fill="#FAF8F5"/>
<path d="M167.277 152.21H162.918L162.169 154.251H160.387L164.116 144.248H166.093L169.823 154.251H168.026L167.277 152.21ZM166.797 150.873L165.105 146.231L163.397 150.873H166.797Z" fill="#FAF8F5"/>
<path d="M178.979 147.137C178.709 146.638 178.335 146.265 177.856 146.016C177.376 145.757 176.822 145.628 176.193 145.628C175.504 145.628 174.89 145.776 174.351 146.073C173.811 146.37 173.387 146.792 173.077 147.338C172.778 147.884 172.628 148.516 172.628 149.235C172.628 149.954 172.778 150.591 173.077 151.147C173.387 151.693 173.811 152.114 174.351 152.411C174.89 152.708 175.504 152.857 176.193 152.857C177.122 152.857 177.876 152.608 178.455 152.109C179.034 151.611 179.388 150.936 179.518 150.083H175.609V148.775H181.346V150.054C181.236 150.83 180.946 151.544 180.477 152.196C180.017 152.847 179.413 153.369 178.664 153.762C177.925 154.146 177.102 154.337 176.193 154.337C175.214 154.337 174.321 154.122 173.512 153.69C172.703 153.25 172.059 152.641 171.58 151.865C171.11 151.089 170.876 150.212 170.876 149.235C170.876 148.258 171.11 147.381 171.58 146.605C172.059 145.829 172.703 145.225 173.512 144.794C174.331 144.353 175.224 144.133 176.193 144.133C177.301 144.133 178.285 144.396 179.144 144.923C180.012 145.441 180.642 146.178 181.031 147.137H178.979Z" fill="#FAF8F5"/>
<path d="M184.737 145.584V148.516H188.332V149.853H184.737V152.914H188.782V154.251H183.03V144.248H188.782V145.584H184.737Z" fill="#FAF8F5"/>
<path d="M196.292 154.251L193.895 150.255H192.592V154.251H190.885V144.262H194.48C195.278 144.262 195.953 144.396 196.502 144.665C197.061 144.933 197.475 145.292 197.745 145.743C198.025 146.193 198.164 146.696 198.164 147.252C198.164 147.903 197.965 148.497 197.565 149.034C197.176 149.561 196.572 149.92 195.753 150.112L198.329 154.251H196.292ZM192.592 148.948H194.48C195.119 148.948 195.598 148.794 195.918 148.488C196.247 148.181 196.412 147.769 196.412 147.252C196.412 146.734 196.252 146.332 195.933 146.044C195.613 145.747 195.129 145.599 194.48 145.599H192.592V148.948Z" fill="#FAF8F5"/>
<path d="M203.779 154.352C203.08 154.352 202.451 154.237 201.892 154.007C201.332 153.767 200.893 153.432 200.573 153.001C200.254 152.569 200.094 152.066 200.094 151.491H201.922C201.961 151.923 202.136 152.277 202.446 152.555C202.765 152.833 203.21 152.972 203.779 152.972C204.368 152.972 204.827 152.838 205.157 152.569C205.486 152.292 205.651 151.937 205.651 151.506C205.651 151.17 205.546 150.897 205.337 150.687C205.137 150.476 204.882 150.313 204.573 150.198C204.273 150.083 203.854 149.958 203.315 149.824C202.636 149.652 202.081 149.479 201.652 149.307C201.233 149.125 200.873 148.847 200.573 148.473C200.274 148.1 200.124 147.601 200.124 146.979C200.124 146.404 200.274 145.901 200.573 145.469C200.873 145.038 201.292 144.708 201.832 144.478C202.371 144.248 202.995 144.133 203.704 144.133C204.713 144.133 205.536 144.377 206.175 144.866C206.825 145.345 207.184 146.006 207.254 146.849H205.367C205.337 146.485 205.157 146.174 204.827 145.915C204.498 145.656 204.063 145.527 203.524 145.527C203.035 145.527 202.636 145.647 202.326 145.886C202.016 146.126 201.862 146.471 201.862 146.921C201.862 147.228 201.956 147.482 202.146 147.683C202.346 147.874 202.596 148.028 202.895 148.143C203.195 148.258 203.604 148.382 204.123 148.516C204.812 148.698 205.372 148.88 205.801 149.063C206.24 149.245 206.61 149.527 206.909 149.911C207.219 150.284 207.374 150.787 207.374 151.42C207.374 151.927 207.229 152.407 206.939 152.857C206.66 153.307 206.245 153.671 205.696 153.949C205.157 154.217 204.518 154.352 203.779 154.352Z" fill="#FAF8F5"/>
<path d="M138.468 84.9842H141.961V86.4266H136.773V75.5298H138.468V84.9842Z" fill="#FAF8F5"/>
<path d="M145.072 76.9722V80.1707H148.639V81.6289H145.072V84.9685H149.085V86.4266H143.377V75.5141H149.085V76.9722H145.072Z" fill="#FAF8F5"/>
<path d="M157.399 84.2002H153.074L152.331 86.4266H150.562L154.263 75.5141H156.225L159.926 86.4266H158.142L157.399 84.2002ZM156.924 82.7421L155.244 77.6778L153.55 82.7421H156.924Z" fill="#FAF8F5"/>
<path d="M164.909 75.5298C166.009 75.5298 166.97 75.7545 167.792 76.204C168.624 76.643 169.264 77.2806 169.709 78.1168C170.165 78.9426 170.393 79.9094 170.393 81.0174C170.393 82.1254 170.165 83.087 169.709 83.9023C169.264 84.7176 168.624 85.3448 167.792 85.7838C166.97 86.2124 166.009 86.4266 164.909 86.4266H161.535V75.5298H164.909ZM164.909 84.9685C166.118 84.9685 167.044 84.6236 167.688 83.9337C168.332 83.2438 168.654 82.2717 168.654 81.0174C168.654 79.7526 168.332 78.7649 167.688 78.0541C167.044 77.3433 166.118 76.9879 164.909 76.9879H163.229V84.9685H164.909Z" fill="#FAF8F5"/>
<path d="M173.767 76.9722V80.1707H177.334V81.6289H173.767V84.9685H177.78V86.4266H172.072V75.5141H177.78V76.9722H173.767Z" fill="#FAF8F5"/>
<path d="M185.232 86.4266L182.854 82.0679H181.561V86.4266H179.867V75.5298H183.434C184.226 75.5298 184.895 75.6761 185.44 75.9688C185.995 76.2615 186.406 76.6534 186.674 77.1447C186.951 77.636 187.09 78.1848 187.09 78.791C187.09 79.5018 186.892 80.1498 186.495 80.7352C186.109 81.3101 185.509 81.7021 184.697 81.9111L187.253 86.4266H185.232ZM181.561 80.6411H183.434C184.068 80.6411 184.543 80.4739 184.86 80.1394C185.187 79.8049 185.351 79.3554 185.351 78.791C185.351 78.2266 185.192 77.7876 184.875 77.474C184.558 77.1499 184.078 76.9879 183.434 76.9879H181.561V80.6411Z" fill="#FAF8F5"/>
<path d="M192.661 86.5364C191.967 86.5364 191.343 86.411 190.788 86.1601C190.233 85.8988 189.797 85.5329 189.48 85.0626C189.163 84.5922 189.005 84.0434 189.005 83.4163H190.818C190.858 83.8867 191.031 84.2734 191.338 84.5765C191.655 84.8797 192.096 85.0312 192.661 85.0312C193.246 85.0312 193.701 84.8849 194.028 84.5922C194.355 84.2891 194.519 83.9023 194.519 83.432C194.519 83.0661 194.415 82.7682 194.207 82.5383C194.008 82.3083 193.756 82.1306 193.449 82.0052C193.151 81.8798 192.735 81.7439 192.2 81.5975C191.526 81.4094 190.976 81.2212 190.55 81.0331C190.134 80.8345 189.778 80.5314 189.48 80.1237C189.183 79.7161 189.034 79.1725 189.034 78.4931C189.034 77.8659 189.183 77.3172 189.48 76.8468C189.778 76.3764 190.194 76.0158 190.729 75.765C191.264 75.5141 191.883 75.3887 192.587 75.3887C193.587 75.3887 194.405 75.6552 195.039 76.1883C195.683 76.7109 196.04 77.4322 196.109 78.352H194.236C194.207 77.9548 194.028 77.6151 193.701 77.3329C193.374 77.0506 192.943 76.9095 192.408 76.9095C191.923 76.9095 191.526 77.0402 191.219 77.3015C190.912 77.5628 190.759 77.9391 190.759 78.4304C190.759 78.7649 190.853 79.0419 191.041 79.2614C191.239 79.4704 191.487 79.6377 191.784 79.7631C192.081 79.8885 192.488 80.0244 193.003 80.1707C193.686 80.3693 194.241 80.5679 194.667 80.7665C195.103 80.9651 195.47 81.2735 195.767 81.6916C196.074 82.0993 196.228 82.648 196.228 83.3379C196.228 83.8919 196.084 84.4145 195.797 84.9058C195.52 85.3971 195.108 85.7943 194.563 86.0974C194.028 86.3901 193.394 86.5364 192.661 86.5364Z" fill="#FAF8F5"/>
<path d="M191.994 0.557579C191.197 0.330254 190.367 0.791764 190.14 1.58839L186.435 14.5702C186.208 15.3668 186.669 16.1969 187.466 16.4242C188.263 16.6515 189.093 16.19 189.32 15.3934L192.613 3.85403L204.152 7.1469C204.949 7.37423 205.779 6.91272 206.006 6.11609C206.234 5.31946 205.772 4.48938 204.975 4.26206L191.994 0.557579ZM190.271 2.72889L324.044 243.334L326.666 241.876L192.893 1.27111L190.271 2.72889Z" fill="#3BD39D"/>
<path d="M4.33882 242.996C4.55447 243.796 5.37771 244.269 6.17758 244.054L19.2122 240.54C20.012 240.324 20.4856 239.501 20.27 238.701C20.0543 237.901 19.2311 237.427 18.4312 237.643L6.84493 240.767L3.72117 229.18C3.50552 228.381 2.68228 227.907 1.88241 228.123C1.08255 228.338 0.608947 229.161 0.824597 229.961L4.33882 242.996ZM7.08731 243.353L145.505 2.74834L142.905 1.25236L4.48691 241.857L7.08731 243.353Z" fill="#3BD39D"/>
<path d="M61.0944 280.06V295.555H58.5527V280.06H61.0944Z" fill="#FAF8F5"/>
<path d="M77.1621 295.555H74.6204L66.9731 283.984V295.555H64.4314V280.038H66.9731L74.6204 291.587V280.038H77.1621V295.555Z" fill="#FAF8F5"/>
<path d="M89.6187 280.06V282.134H83.0415V286.704H88.1695V288.778H83.0415V295.555H80.4998V280.06H89.6187Z" fill="#FAF8F5"/>
<path d="M99.0418 295.711C97.6 295.711 96.2697 295.377 95.0509 294.708C93.847 294.024 92.8883 293.081 92.1748 291.877C91.4762 290.658 91.1269 289.29 91.1269 287.774C91.1269 286.258 91.4762 284.898 92.1748 283.694C92.8883 282.49 93.847 281.554 95.0509 280.885C96.2697 280.201 97.6 279.859 99.0418 279.859C100.498 279.859 101.829 280.201 103.033 280.885C104.252 281.554 105.21 282.49 105.909 283.694C106.607 284.898 106.957 286.258 106.957 287.774C106.957 289.29 106.607 290.658 105.909 291.877C105.21 293.081 104.252 294.024 103.033 294.708C101.829 295.377 100.498 295.711 99.0418 295.711ZM99.0418 293.504C100.067 293.504 100.982 293.274 101.784 292.813C102.587 292.337 103.211 291.669 103.657 290.806C104.118 289.929 104.348 288.919 104.348 287.774C104.348 286.63 104.118 285.626 103.657 284.764C103.211 283.902 102.587 283.241 101.784 282.78C100.982 282.319 100.067 282.089 99.0418 282.089C98.0162 282.089 97.1021 282.319 96.2995 282.78C95.4968 283.241 94.8651 283.902 94.4044 284.764C93.9584 285.626 93.7355 286.63 93.7355 287.774C93.7355 288.919 93.9584 289.929 94.4044 290.806C94.8651 291.669 95.4968 292.337 96.2995 292.813C97.1021 293.274 98.0162 293.504 99.0418 293.504Z" fill="#FAF8F5"/>
<path d="M117.506 295.555L113.939 289.357H111.999V295.555H109.458V280.06H114.809C115.998 280.06 117.001 280.268 117.819 280.684C118.651 281.1 119.268 281.658 119.669 282.356C120.085 283.055 120.293 283.835 120.293 284.697C120.293 285.708 119.996 286.63 119.402 287.462C118.822 288.28 117.923 288.837 116.704 289.134L120.539 295.555H117.506ZM111.999 287.328H114.809C115.76 287.328 116.473 287.091 116.949 286.615C117.44 286.139 117.685 285.5 117.685 284.697C117.685 283.895 117.447 283.271 116.971 282.825C116.496 282.364 115.775 282.134 114.809 282.134H111.999V287.328Z" fill="#FAF8F5"/>
<path d="M139.865 280.06V295.555H137.323V284.943L132.597 295.555H130.835L126.087 284.943V295.555H123.545V280.06H126.287L131.727 292.211L137.145 280.06H139.865Z" fill="#FAF8F5"/>
<path d="M152.548 292.389H146.06L144.945 295.555H142.292L147.843 280.038H150.786L156.338 295.555H153.662L152.548 292.389ZM151.834 290.316L149.315 283.115L146.773 290.316H151.834Z" fill="#FAF8F5"/>
<path d="M168.762 280.06V282.134H164.638V295.555H162.096V282.134H157.949V280.06H168.762Z" fill="#FAF8F5"/>
<path d="M173.878 280.06V295.555H171.336V280.06H173.878Z" fill="#FAF8F5"/>
<path d="M184.283 295.711C182.841 295.711 181.511 295.377 180.292 294.708C179.088 294.024 178.129 293.081 177.416 291.877C176.717 290.658 176.368 289.29 176.368 287.774C176.368 286.258 176.717 284.898 177.416 283.694C178.129 282.49 179.088 281.554 180.292 280.885C181.511 280.201 182.841 279.859 184.283 279.859C185.739 279.859 187.07 280.201 188.274 280.885C189.492 281.554 190.451 282.49 191.15 283.694C191.848 284.898 192.198 286.258 192.198 287.774C192.198 289.29 191.848 290.658 191.15 291.877C190.451 293.081 189.492 294.024 188.274 294.708C187.07 295.377 185.739 295.711 184.283 295.711ZM184.283 293.504C185.308 293.504 186.222 293.274 187.025 292.813C187.828 292.337 188.452 291.669 188.898 290.806C189.359 289.929 189.589 288.919 189.589 287.774C189.589 286.63 189.359 285.626 188.898 284.764C188.452 283.902 187.828 283.241 187.025 282.78C186.222 282.319 185.308 282.089 184.283 282.089C183.257 282.089 182.343 282.319 181.54 282.78C180.738 283.241 180.106 283.902 179.645 284.764C179.199 285.626 178.976 286.63 178.976 287.774C178.976 288.919 179.199 289.929 179.645 290.806C180.106 291.669 180.738 292.337 181.54 292.813C182.343 293.274 183.257 293.504 184.283 293.504Z" fill="#FAF8F5"/>
<path d="M207.429 295.555H204.888L197.24 283.984V295.555H194.699V280.038H197.24L204.888 291.587V280.038H207.429V295.555Z" fill="#FAF8F5"/>
<path d="M225.678 280.06V282.134H219.1V286.704H224.228V288.778H219.1V295.555H216.559V280.06H225.678Z" fill="#FAF8F5"/>
<path d="M230.575 293.504H235.814V295.555H228.033V280.06H230.575V293.504Z" fill="#FAF8F5"/>
<path d="M245.007 295.711C243.566 295.711 242.235 295.377 241.016 294.708C239.813 294.024 238.854 293.081 238.14 291.877C237.442 290.658 237.092 289.29 237.092 287.774C237.092 286.258 237.442 284.898 238.14 283.694C238.854 282.49 239.813 281.554 241.016 280.885C242.235 280.201 243.566 279.859 245.007 279.859C246.464 279.859 247.794 280.201 248.998 280.885C250.217 281.554 251.176 282.49 251.874 283.694C252.573 284.898 252.922 286.258 252.922 287.774C252.922 289.29 252.573 290.658 251.874 291.877C251.176 293.081 250.217 294.024 248.998 294.708C247.794 295.377 246.464 295.711 245.007 295.711ZM245.007 293.504C246.033 293.504 246.947 293.274 247.75 292.813C248.552 292.337 249.177 291.669 249.623 290.806C250.083 289.929 250.314 288.919 250.314 287.774C250.314 286.63 250.083 285.626 249.623 284.764C249.177 283.902 248.552 283.241 247.75 282.78C246.947 282.319 246.033 282.089 245.007 282.089C243.982 282.089 243.068 282.319 242.265 282.78C241.462 283.241 240.831 283.902 240.37 284.764C239.924 285.626 239.701 286.63 239.701 287.774C239.701 288.919 239.924 289.929 240.37 290.806C240.831 291.669 241.462 292.337 242.265 292.813C243.068 293.274 243.982 293.504 245.007 293.504Z" fill="#FAF8F5"/>
<path d="M275.601 280.06L271.008 295.555H268.132L264.877 283.828L261.421 295.555L258.567 295.578L254.175 280.06H256.873L260.083 292.679L263.561 280.06H266.415L269.648 292.612L272.881 280.06H275.601Z" fill="#FAF8F5"/>
</svg>
