<svg width="327" height="327" viewBox="0 0 327 327" fill="none" xmlns="http://www.w3.org/2000/svg">
<circle cx="163.5" cy="163.5" r="162.5" fill="#CCEBF3" fill-opacity="0.14" stroke="#80CDE0" stroke-width="2"/>
<circle cx="163.092" cy="163.908" r="113.041" fill="#CCEBF3" fill-opacity="0.14" stroke="#80CDE0" stroke-width="2"/>
<circle cx="162.682" cy="164.317" r="56.225" fill="#CCEBF3" fill-opacity="0.14" stroke="#80CDE0" stroke-width="2"/>
<path d="M207.388 202.08C206.572 202.221 206.025 202.998 206.167 203.814L208.476 217.115C208.618 217.931 209.395 218.478 210.211 218.336C211.027 218.195 211.574 217.418 211.432 216.602L209.379 204.779L221.202 202.726C222.018 202.584 222.565 201.807 222.423 200.991C222.282 200.175 221.505 199.628 220.689 199.77L207.388 202.08ZM288.016 261.443C288.832 261.301 289.379 260.525 289.237 259.708L286.928 246.408C286.786 245.591 286.009 245.045 285.193 245.186C284.377 245.328 283.83 246.105 283.972 246.921L286.025 258.744L274.202 260.797C273.386 260.939 272.839 261.715 272.981 262.532C273.122 263.348 273.899 263.894 274.715 263.753L288.016 261.443ZM206.781 204.784L286.896 261.192L288.623 258.739L208.508 202.331L206.781 204.784Z" fill="#3BD39D"/>
<path d="M207.388 127.372C206.572 127.231 206.025 126.454 206.167 125.638L208.476 112.337C208.618 111.521 209.395 110.974 210.211 111.116C211.027 111.257 211.574 112.034 211.432 112.85L209.379 124.673L221.202 126.726C222.018 126.868 222.565 127.645 222.423 128.461C222.282 129.277 221.505 129.824 220.689 129.682L207.388 127.372ZM288.016 68.0091C288.832 68.1509 289.379 68.9275 289.237 69.7437L286.928 83.0446C286.786 83.8608 286.009 84.4076 285.193 84.2659C284.377 84.1241 283.83 83.3475 283.972 82.5313L286.025 70.7083L274.202 68.6552C273.386 68.5134 272.839 67.7369 272.981 66.9206C273.122 66.1044 273.899 65.5577 274.715 65.6994L288.016 68.0091ZM206.781 124.668L286.896 68.2605L288.623 70.7135L208.508 127.121L206.781 124.668Z" fill="#3BD39D"/>
<path d="M118.804 204.534C119.619 204.681 120.161 205.461 120.013 206.277L117.612 219.561C117.465 220.377 116.685 220.918 115.869 220.771C115.054 220.623 114.513 219.843 114.66 219.028L116.794 207.219L104.986 205.085C104.17 204.938 103.629 204.157 103.776 203.342C103.924 202.527 104.704 201.985 105.519 202.133L118.804 204.534ZM38.1553 263.076C37.3401 262.929 36.7987 262.148 36.946 261.333L39.3469 248.048C39.4942 247.233 40.2745 246.692 41.0897 246.839C41.905 246.986 42.4464 247.767 42.2991 248.582L40.165 260.39L51.9737 262.525C52.7889 262.672 53.3303 263.452 53.183 264.267C53.0357 265.083 52.2554 265.624 51.4401 265.477L38.1553 263.076ZM119.392 207.242L39.2772 262.832L37.567 260.367L117.682 204.777L119.392 207.242Z" fill="#3BD39D"/>
<path d="M118.794 127.372C119.61 127.231 120.157 126.454 120.015 125.638L117.705 112.337C117.564 111.521 116.787 110.974 115.971 111.116C115.155 111.257 114.608 112.034 114.749 112.85L116.803 124.673L104.98 126.726C104.163 126.868 103.617 127.645 103.758 128.461C103.9 129.277 104.677 129.824 105.493 129.682L118.794 127.372ZM38.1655 68.0091C37.3493 68.1509 36.8025 68.9275 36.9442 69.7437L39.254 83.0446C39.3957 83.8608 40.1723 84.4076 40.9885 84.2659C41.8047 84.1241 42.3515 83.3475 42.2097 82.5313L40.1566 70.7083L51.9797 68.6552C52.7959 68.5134 53.3427 67.7369 53.2009 66.9206C53.0592 66.1044 52.2826 65.5577 51.4664 65.6994L38.1655 68.0091ZM119.401 124.668L39.2857 68.2605L37.5586 70.7135L117.674 127.121L119.401 124.668Z" fill="#3BD39D"/>
<path d="M169.465 2.20887C168.879 1.62308 167.929 1.62308 167.344 2.20887L157.798 11.7548C157.212 12.3406 157.212 13.2903 157.798 13.8761C158.383 14.4619 159.333 14.4619 159.919 13.8761L168.404 5.39085L176.89 13.8761C177.475 14.4619 178.425 14.4619 179.011 13.8761C179.597 13.2903 179.597 12.3406 179.011 11.7548L169.465 2.20887ZM167.344 49.2927C167.929 49.8785 168.879 49.8785 169.465 49.2927L179.011 39.7467C179.597 39.161 179.597 38.2112 179.011 37.6254C178.425 37.0396 177.475 37.0396 176.89 37.6254L168.404 46.1107L159.919 37.6254C159.333 37.0396 158.383 37.0396 157.798 37.6254C157.212 38.2112 157.212 39.161 157.798 39.7467L167.344 49.2927ZM166.904 3.26953V48.232H169.904V3.26953H166.904Z" fill="#3BD39D"/>
<path d="M221.299 161.622C220.713 162.208 220.713 163.157 221.299 163.743L230.845 173.289C231.43 173.875 232.38 173.875 232.966 173.289C233.552 172.703 233.552 171.754 232.966 171.168L224.481 162.683L232.966 154.197C233.552 153.612 233.552 152.662 232.966 152.076C232.38 151.49 231.43 151.49 230.845 152.076L221.299 161.622ZM275.74 163.743C276.326 163.157 276.326 162.208 275.74 161.622L266.194 152.076C265.608 151.49 264.659 151.49 264.073 152.076C263.487 152.662 263.487 153.612 264.073 154.197L272.558 162.683L264.073 171.168C263.487 171.754 263.487 172.703 264.073 173.289C264.659 173.875 265.608 173.875 266.194 173.289L275.74 163.743ZM222.359 164.183L274.679 164.183V161.183L222.359 161.183V164.183Z" fill="#3BD39D"/>
<path d="M50.4413 161.622C49.8555 162.208 49.8555 163.157 50.4413 163.743L59.9872 173.289C60.573 173.875 61.5228 173.875 62.1086 173.289C62.6943 172.703 62.6943 171.754 62.1086 171.168L53.6233 162.683L62.1086 154.197C62.6943 153.612 62.6943 152.662 62.1086 152.076C61.5228 151.49 60.573 151.49 59.9872 152.076L50.4413 161.622ZM104.883 163.743C105.468 163.157 105.468 162.208 104.883 161.622L95.3367 152.076C94.7509 151.49 93.8011 151.49 93.2154 152.076C92.6296 152.662 92.6296 153.612 93.2154 154.197L101.701 162.683L93.2154 171.168C92.6296 171.754 92.6296 172.703 93.2154 173.289C93.8011 173.875 94.7509 173.875 95.3367 173.289L104.883 163.743ZM51.502 164.183L103.822 164.183V161.183L51.502 161.183V164.183Z" fill="#3BD39D"/>
<path d="M212.19 270.513C211.41 270.235 210.552 270.642 210.274 271.423L205.749 284.142C205.471 284.922 205.878 285.78 206.659 286.058C207.439 286.335 208.297 285.928 208.575 285.147L212.598 273.842L223.903 277.865C224.684 278.143 225.542 277.735 225.819 276.954C226.097 276.174 225.69 275.316 224.909 275.038L212.19 270.513ZM227.987 308.704C228.767 308.982 229.625 308.575 229.903 307.794L234.429 295.075C234.707 294.295 234.299 293.437 233.518 293.159C232.738 292.882 231.88 293.289 231.602 294.07L227.579 305.375L216.274 301.352C215.493 301.075 214.636 301.482 214.358 302.263C214.08 303.043 214.488 303.901 215.268 304.179L227.987 308.704ZM210.333 272.569L227.135 307.935L229.845 306.648L213.042 271.282L210.333 272.569Z" fill="#3BD39D"/>
<path d="M114.667 272.386C114.384 271.608 113.523 271.207 112.745 271.49L100.059 276.107C99.2805 276.39 98.8791 277.251 99.1624 278.03C99.4458 278.808 100.307 279.21 101.085 278.926L112.361 274.822L116.466 286.098C116.749 286.877 117.61 287.278 118.388 286.995C119.167 286.711 119.568 285.851 119.285 285.072L114.667 272.386ZM95.3011 308.898C95.5844 309.676 96.4452 310.078 97.2237 309.794L109.91 305.177C110.688 304.894 111.089 304.033 110.806 303.255C110.523 302.476 109.662 302.075 108.883 302.358L97.6071 306.462L93.5029 295.186C93.2196 294.408 92.3588 294.006 91.5803 294.29C90.8019 294.573 90.4005 295.434 90.6838 296.212L95.3011 308.898ZM111.898 272.265L95.3512 307.751L98.0701 309.019L114.617 273.533L111.898 272.265Z" fill="#3BD39D"/>
<path d="M152.976 158.74V169.896H151.238V158.74H152.976Z" fill="#017B9A"/>
<path d="M154.678 164.294C154.678 163.203 154.917 162.223 155.394 161.357C155.882 160.49 156.538 159.816 157.361 159.334C158.194 158.842 159.103 158.596 160.089 158.596C161.217 158.596 162.218 158.89 163.092 159.479C163.976 160.056 164.616 160.88 165.012 161.951H162.924C162.65 161.362 162.269 160.923 161.781 160.634C161.293 160.345 160.729 160.201 160.089 160.201C159.388 160.201 158.763 160.367 158.214 160.699C157.666 161.03 157.234 161.506 156.919 162.127C156.614 162.748 156.461 163.47 156.461 164.294C156.461 165.118 156.614 165.84 156.919 166.461C157.234 167.082 157.666 167.563 158.214 167.906C158.763 168.238 159.388 168.403 160.089 168.403C160.729 168.403 161.293 168.259 161.781 167.97C162.269 167.681 162.65 167.242 162.924 166.654H165.012C164.616 167.724 163.976 168.548 163.092 169.126C162.218 169.704 161.217 169.993 160.089 169.993C159.093 169.993 158.184 169.752 157.361 169.27C156.538 168.778 155.882 168.098 155.394 167.232C154.917 166.365 154.678 165.386 154.678 164.294Z" fill="#017B9A"/>
<path d="M170.095 170.041C169.434 170.041 168.84 169.918 168.311 169.672C167.793 169.415 167.382 169.072 167.077 168.644C166.772 168.205 166.609 167.719 166.589 167.183H168.388C168.418 167.558 168.586 167.874 168.891 168.131C169.206 168.377 169.597 168.5 170.064 168.5C170.552 168.5 170.928 168.403 171.192 168.211C171.466 168.007 171.604 167.751 171.604 167.44C171.604 167.109 171.451 166.862 171.146 166.702C170.852 166.541 170.379 166.365 169.729 166.172C169.099 165.99 168.586 165.814 168.189 165.642C167.793 165.471 167.448 165.209 167.153 164.856C166.868 164.503 166.726 164.037 166.726 163.459C166.726 162.989 166.858 162.561 167.122 162.175C167.387 161.779 167.763 161.469 168.25 161.244C168.748 161.02 169.317 160.907 169.957 160.907C170.913 160.907 171.68 161.164 172.259 161.678C172.848 162.181 173.163 162.871 173.204 163.748H171.466C171.436 163.352 171.284 163.037 171.009 162.801C170.735 162.566 170.364 162.448 169.897 162.448C169.439 162.448 169.089 162.539 168.845 162.721C168.601 162.903 168.479 163.144 168.479 163.443C168.479 163.679 168.56 163.877 168.723 164.037C168.885 164.198 169.084 164.326 169.317 164.423C169.551 164.508 169.897 164.621 170.354 164.76C170.963 164.931 171.461 165.107 171.848 165.289C172.244 165.461 172.584 165.717 172.869 166.06C173.153 166.402 173.301 166.857 173.311 167.424C173.311 167.927 173.179 168.377 172.914 168.773C172.65 169.169 172.274 169.479 171.787 169.704C171.309 169.928 170.745 170.041 170.095 170.041Z" fill="#017B9A"/>
<path d="M131.484 238.844V249.233H129.722V242.118L126.446 249.233H125.225L121.934 242.118V249.233H120.172V238.844H122.073L125.843 246.991L129.599 238.844H131.484Z" fill="#017B9A"/>
<path d="M140.275 247.11H135.778L135.005 249.233H133.166L137.014 238.83H139.054L142.902 249.233H141.047L140.275 247.11ZM139.78 245.72L138.034 240.892L136.272 245.72H139.78Z" fill="#017B9A"/>
<path d="M153.399 249.233H151.637L146.337 241.475V249.233H144.575V238.83H146.337L151.637 246.572V238.83H153.399V249.233Z" fill="#017B9A"/>
<path d="M162.188 247.11H157.691L156.918 249.233H155.079L158.927 238.83H160.967L164.815 249.233H162.96L162.188 247.11ZM161.693 245.72L159.947 240.892L158.185 245.72H161.693Z" fill="#017B9A"/>
<path d="M174.261 241.834C173.983 241.316 173.597 240.927 173.102 240.668C172.608 240.399 172.036 240.264 171.387 240.264C170.676 240.264 170.042 240.419 169.486 240.728C168.93 241.037 168.492 241.475 168.172 242.043C167.863 242.611 167.709 243.269 167.709 244.016C167.709 244.764 167.863 245.426 168.172 246.004C168.492 246.572 168.93 247.011 169.486 247.32C170.042 247.628 170.676 247.783 171.387 247.783C172.345 247.783 173.123 247.524 173.72 247.006C174.318 246.488 174.684 245.785 174.818 244.898H170.784V243.538H176.703V244.868C176.59 245.675 176.291 246.418 175.807 247.095C175.333 247.773 174.709 248.316 173.937 248.725C173.174 249.123 172.324 249.323 171.387 249.323C170.377 249.323 169.455 249.098 168.621 248.65C167.786 248.192 167.122 247.559 166.627 246.752C166.143 245.944 165.901 245.033 165.901 244.016C165.901 243 166.143 242.088 166.627 241.281C167.122 240.474 167.786 239.846 168.621 239.398C169.465 238.939 170.388 238.71 171.387 238.71C172.53 238.71 173.545 238.984 174.431 239.532C175.328 240.07 175.977 240.837 176.378 241.834H174.261Z" fill="#017B9A"/>
<path d="M180.202 240.22V243.269H183.911V244.659H180.202V247.843H184.375V249.233H178.441V238.83H184.375V240.22H180.202Z" fill="#017B9A"/>
<path d="M192.124 249.233L189.651 245.077H188.306V249.233H186.545V238.844H190.254C191.078 238.844 191.773 238.984 192.34 239.263C192.917 239.542 193.344 239.916 193.623 240.384C193.911 240.852 194.055 241.376 194.055 241.954C194.055 242.631 193.849 243.249 193.437 243.807C193.035 244.355 192.412 244.729 191.567 244.928L194.225 249.233H192.124ZM188.306 243.717H190.254C190.913 243.717 191.408 243.558 191.737 243.239C192.077 242.92 192.247 242.492 192.247 241.954C192.247 241.415 192.082 240.997 191.753 240.698C191.423 240.389 190.923 240.235 190.254 240.235H188.306V243.717Z" fill="#017B9A"/>
<path d="M199.848 249.337C199.127 249.337 198.478 249.218 197.901 248.979C197.324 248.73 196.871 248.381 196.541 247.932C196.211 247.484 196.046 246.961 196.046 246.363H197.932C197.973 246.811 198.153 247.18 198.473 247.469C198.802 247.758 199.261 247.903 199.848 247.903C200.456 247.903 200.93 247.763 201.27 247.484C201.61 247.195 201.78 246.826 201.78 246.378C201.78 246.029 201.672 245.745 201.455 245.526C201.249 245.307 200.986 245.137 200.667 245.018C200.358 244.898 199.925 244.769 199.369 244.629C198.668 244.45 198.097 244.27 197.654 244.091C197.221 243.902 196.85 243.613 196.541 243.224C196.232 242.835 196.077 242.317 196.077 241.67C196.077 241.072 196.232 240.548 196.541 240.1C196.85 239.652 197.283 239.308 197.839 239.069C198.395 238.83 199.039 238.71 199.771 238.71C200.811 238.71 201.661 238.964 202.321 239.472C202.99 239.971 203.361 240.658 203.433 241.535H201.486C201.455 241.156 201.27 240.832 200.93 240.563C200.59 240.294 200.142 240.16 199.585 240.16C199.08 240.16 198.668 240.284 198.349 240.534C198.03 240.783 197.87 241.141 197.87 241.61C197.87 241.929 197.968 242.193 198.163 242.402C198.37 242.601 198.627 242.761 198.936 242.88C199.245 243 199.668 243.129 200.203 243.269C200.914 243.458 201.491 243.648 201.934 243.837C202.388 244.026 202.769 244.32 203.078 244.719C203.397 245.107 203.557 245.631 203.557 246.288C203.557 246.816 203.407 247.315 203.109 247.783C202.82 248.251 202.393 248.63 201.826 248.919C201.27 249.198 200.61 249.337 199.848 249.337Z" fill="#017B9A"/>
<path d="M134.206 304.969H137.856V306.45H132.436V295.262H134.206V304.969Z" fill="#017B9A"/>
<path d="M141.107 296.743V300.027H144.835V301.524H141.107V304.952H145.301V306.45H139.337V295.246H145.301V296.743H141.107Z" fill="#017B9A"/>
<path d="M153.989 304.164H149.47L148.693 306.45H146.845L150.712 295.246H152.762L156.63 306.45H154.766L153.989 304.164ZM153.492 302.667L151.737 297.467L149.967 302.667H153.492Z" fill="#017B9A"/>
<path d="M161.837 295.262C162.986 295.262 163.991 295.493 164.85 295.954C165.72 296.405 166.388 297.06 166.854 297.918C167.33 298.766 167.568 299.759 167.568 300.896C167.568 302.034 167.33 303.021 166.854 303.858C166.388 304.695 165.72 305.339 164.85 305.79C163.991 306.23 162.986 306.45 161.837 306.45H158.311V295.262H161.837ZM161.837 304.952C163.1 304.952 164.068 304.598 164.741 303.89C165.414 303.182 165.751 302.184 165.751 300.896C165.751 299.598 165.414 298.583 164.741 297.854C164.068 297.124 163.1 296.759 161.837 296.759H160.082V304.952H161.837Z" fill="#017B9A"/>
<path d="M171.094 296.743V300.027H174.821V301.524H171.094V304.952H175.287V306.45H169.323V295.246H175.287V296.743H171.094Z" fill="#017B9A"/>
<path d="M183.075 306.45L180.59 301.975H179.238V306.45H177.468V295.262H181.195C182.024 295.262 182.723 295.412 183.292 295.713C183.872 296.013 184.302 296.416 184.581 296.92C184.871 297.424 185.016 297.988 185.016 298.61C185.016 299.34 184.809 300.005 184.395 300.606C183.991 301.197 183.365 301.599 182.516 301.814L185.187 306.45H183.075ZM179.238 300.51H181.195C181.858 300.51 182.355 300.338 182.686 299.995C183.028 299.651 183.199 299.19 183.199 298.61C183.199 298.031 183.033 297.58 182.702 297.258C182.371 296.925 181.868 296.759 181.195 296.759H179.238V300.51Z" fill="#017B9A"/>
<path d="M190.838 306.562C190.113 306.562 189.461 306.433 188.881 306.176C188.301 305.908 187.846 305.532 187.514 305.049C187.183 304.566 187.017 304.003 187.017 303.359H188.912C188.953 303.842 189.135 304.239 189.456 304.55C189.787 304.861 190.248 305.017 190.838 305.017C191.449 305.017 191.925 304.867 192.267 304.566C192.609 304.255 192.779 303.858 192.779 303.375C192.779 302.999 192.671 302.694 192.453 302.457C192.246 302.221 191.982 302.039 191.661 301.91C191.351 301.781 190.916 301.642 190.357 301.492C189.652 301.298 189.078 301.105 188.633 300.912C188.198 300.708 187.825 300.397 187.514 299.978C187.204 299.56 187.048 299.002 187.048 298.304C187.048 297.661 187.204 297.097 187.514 296.614C187.825 296.131 188.26 295.761 188.819 295.504C189.378 295.246 190.025 295.117 190.76 295.117C191.806 295.117 192.66 295.391 193.323 295.938C193.996 296.475 194.369 297.215 194.441 298.16H192.484C192.453 297.752 192.267 297.403 191.925 297.113C191.583 296.823 191.133 296.679 190.574 296.679C190.067 296.679 189.652 296.813 189.331 297.081C189.01 297.349 188.85 297.736 188.85 298.24C188.85 298.583 188.948 298.868 189.145 299.093C189.352 299.308 189.611 299.479 189.922 299.608C190.232 299.737 190.657 299.877 191.195 300.027C191.91 300.231 192.49 300.435 192.935 300.638C193.39 300.842 193.773 301.159 194.084 301.588C194.405 302.007 194.566 302.57 194.566 303.278C194.566 303.847 194.415 304.384 194.115 304.888C193.825 305.392 193.396 305.8 192.826 306.111C192.267 306.412 191.604 306.562 190.838 306.562Z" fill="#017B9A"/>
</svg>
