<svg width="328" height="306" viewBox="0 0 328 306" fill="none" xmlns="http://www.w3.org/2000/svg">
<path d="M103.098 243.125C103.296 242.609 103.039 242.031 102.523 241.833L94.1233 238.602C93.6078 238.403 93.0292 238.661 92.8309 239.176C92.6327 239.692 92.8898 240.27 93.4053 240.468L100.872 243.34L98.0002 250.807C97.802 251.323 98.0591 251.901 98.5746 252.099C99.0901 252.298 99.6687 252.04 99.8669 251.525L103.098 243.125ZM54.0116 265.261L57.0465 263.913L56.2343 262.085L53.1993 263.434L54.0116 265.261ZM63.1164 261.215L69.1863 258.517L68.374 256.69L62.3041 259.387L63.1164 261.215ZM75.2561 255.819L81.326 253.122L80.5137 251.294L74.4439 253.992L75.2561 255.819ZM87.3959 250.424L93.4657 247.726L92.6535 245.899L86.5836 248.596L87.3959 250.424ZM99.5356 245.029L102.571 243.68L101.758 241.852L98.7233 243.201L99.5356 245.029Z" fill="#FAF8F5"/>
<path d="M136.352 194.707C136.256 194.163 135.738 193.8 135.194 193.895L126.329 195.453C125.785 195.548 125.422 196.067 125.518 196.611C125.613 197.155 126.132 197.518 126.676 197.423L134.555 196.038L135.939 203.917C136.035 204.461 136.553 204.825 137.097 204.729C137.641 204.634 138.005 204.115 137.909 203.571L136.352 194.707ZM105.68 238.965L107.587 236.245L105.949 235.097L104.043 237.817L105.68 238.965ZM111.4 230.806L115.213 225.368L113.575 224.22L109.762 229.658L111.4 230.806ZM119.026 219.929L122.839 214.49L121.202 213.342L117.389 218.781L119.026 219.929ZM126.653 209.051L130.466 203.612L128.828 202.464L125.015 207.903L126.653 209.051ZM134.279 198.174L136.186 195.454L134.548 194.306L132.641 197.025L134.279 198.174Z" fill="#FAF8F5"/>
<path d="M138.093 135.527C137.719 135.121 137.086 135.096 136.68 135.47L130.064 141.572C129.658 141.946 129.633 142.579 130.007 142.985C130.382 143.391 131.014 143.417 131.42 143.042L137.301 137.618L142.725 143.499C143.099 143.905 143.732 143.93 144.138 143.556C144.544 143.182 144.569 142.549 144.195 142.143L138.093 135.527ZM136.212 189.341L136.346 186.023L134.348 185.942L134.214 189.26L136.212 189.341ZM136.614 179.386L136.882 172.749L134.884 172.668L134.616 179.305L136.614 179.386ZM137.151 166.112L137.419 159.475L135.42 159.394L135.152 166.031L137.151 166.112ZM137.687 152.838L137.955 146.201L135.957 146.12L135.688 152.757L137.687 152.838ZM138.223 139.564L138.357 136.246L136.359 136.165L136.225 139.483L138.223 139.564Z" fill="#FAF8F5"/>
<path d="M167.813 93.5256C167.708 92.9834 167.184 92.629 166.642 92.734L157.806 94.4456C157.264 94.5506 156.909 95.0753 157.014 95.6175C157.119 96.1597 157.644 96.5141 158.186 96.4091L166.04 94.8877L167.562 102.742C167.667 103.284 168.191 103.638 168.733 103.533C169.276 103.428 169.63 102.904 169.525 102.361L167.813 93.5256ZM140.086 135.099L141.81 132.547L140.153 131.428L138.429 133.979L140.086 135.099ZM145.257 127.444L148.703 122.342L147.046 121.222L143.599 126.325L145.257 127.444ZM152.15 117.239L155.597 112.136L153.939 111.016L150.493 116.119L152.15 117.239ZM159.044 107.033L162.49 101.93L160.833 100.81L157.386 105.913L159.044 107.033ZM165.937 96.827L167.66 94.2755L166.003 93.156L164.28 95.7075L165.937 96.827Z" fill="#FAF8F5"/>
<path d="M219.704 82.7733C219.993 82.3022 219.844 81.6866 219.373 81.3983L211.697 76.6997C211.226 76.4113 210.611 76.5594 210.322 77.0305C210.034 77.5015 210.182 78.1171 210.653 78.4055L217.476 82.582L213.3 89.4053C213.011 89.8763 213.16 90.4919 213.631 90.7802C214.102 91.0686 214.717 90.9204 215.006 90.4494L219.704 82.7733ZM171.189 94.7476L174.183 94.0274L173.715 92.0829L170.721 92.8031L171.189 94.7476ZM180.17 92.5869L186.157 91.1463L185.689 89.2018L179.702 90.6424L180.17 92.5869ZM192.144 89.7058L198.131 88.2653L197.663 86.3208L191.676 87.7613L192.144 89.7058ZM204.118 86.8248L210.105 85.3843L209.637 83.4397L203.65 84.8803L204.118 86.8248ZM216.092 83.9437L219.085 83.2235L218.617 81.279L215.624 81.9992L216.092 83.9437Z" fill="#FAF8F5"/>
<path d="M243.615 33.342C243.422 32.8246 242.846 32.5615 242.328 32.7545L233.895 35.8993C233.378 36.0923 233.115 36.6682 233.308 37.1857C233.501 37.7032 234.077 37.9662 234.594 37.7732L242.09 34.9779L244.885 42.4736C245.078 42.991 245.654 43.2541 246.172 43.0611C246.689 42.8681 246.952 42.2922 246.759 41.7747L243.615 33.342ZM223.121 78.9174L224.4 76.1168L222.58 75.2858L221.301 78.0865L223.121 78.9174ZM226.958 70.5154L229.516 64.9141L227.697 64.0832L225.139 69.6845L226.958 70.5154ZM232.075 59.3128L234.633 53.7115L232.814 52.8806L230.255 58.4819L232.075 59.3128ZM237.191 48.1102L239.75 42.5089L237.93 41.678L235.372 47.2793L237.191 48.1102ZM242.308 36.9076L243.587 34.1069L241.768 33.276L240.489 36.0767L242.308 36.9076Z" fill="#FAF8F5"/>
<path d="M246.765 34.5891L249.727 33.75L249.182 31.8257L246.22 32.6648L246.765 34.5891ZM255.652 32.0719L261.577 30.3938L261.032 28.4695L255.107 30.1476L255.652 32.0719ZM267.502 28.7156L273.426 27.0375L272.881 25.1132L266.957 26.7913L267.502 28.7156ZM279.351 25.3594L285.276 23.6813L284.731 21.757L278.806 23.4351L279.351 25.3594ZM291.201 22.0031L294.163 21.1641L293.618 19.2398L290.656 20.0788L291.201 22.0031Z" fill="#FAF8F5"/>
<path d="M288.284 28.7954C289.112 28.818 289.765 29.5076 289.742 30.3357L289.374 43.8307C289.352 44.6589 288.662 45.3119 287.834 45.2893C287.006 45.2667 286.353 44.5771 286.376 43.749L286.702 31.7534L274.707 31.4265C273.879 31.4039 273.226 30.7143 273.248 29.8862C273.271 29.0581 273.961 28.405 274.789 28.4276L288.284 28.7954ZM42.328 261.094L287.211 29.2057L289.274 31.384L44.3907 263.273L42.328 261.094Z" fill="url(#paint0_linear_218_2192)"/>
<path d="M1 0.644531V304.812H315.959" stroke="url(#paint1_linear_218_2192)" stroke-width="2"/>
<circle cx="34.7216" cy="271.091" r="5.39544" fill="#019AC1"/>
<circle cx="296.401" cy="21.5517" r="5.39544" fill="#019AC1"/>
<path d="M49.5312 276.561C49.006 276.561 48.5312 276.471 48.1068 276.291C47.6895 276.112 47.3586 275.853 47.114 275.514C46.8694 275.176 46.7435 274.777 46.7363 274.317H48.355C48.3765 274.626 48.4844 274.871 48.6787 275.05C48.8801 275.23 49.1535 275.32 49.4988 275.32C49.8513 275.32 50.1283 275.237 50.3297 275.072C50.5311 274.899 50.6318 274.676 50.6318 274.403C50.6318 274.18 50.5635 273.997 50.4268 273.853C50.2901 273.709 50.1175 273.597 49.9088 273.518C49.7074 273.432 49.4269 273.338 49.0672 273.238C48.578 273.094 48.1787 272.953 47.8694 272.817C47.5672 272.673 47.3046 272.461 47.0816 272.18C46.8658 271.892 46.7579 271.511 46.7579 271.036C46.7579 270.59 46.8694 270.202 47.0924 269.871C47.3154 269.54 47.6284 269.288 48.0312 269.115C48.4341 268.936 48.8945 268.846 49.4125 268.846C50.1894 268.846 50.8189 269.036 51.3009 269.418C51.7901 269.792 52.0598 270.317 52.1102 270.993H50.4484C50.434 270.734 50.3225 270.522 50.1139 270.356C49.9124 270.184 49.6427 270.097 49.3046 270.097C49.0096 270.097 48.7722 270.173 48.5924 270.324C48.4197 270.475 48.3334 270.695 48.3334 270.982C48.3334 271.184 48.3981 271.353 48.5276 271.489C48.6643 271.619 48.8298 271.727 49.024 271.813C49.2254 271.892 49.506 271.986 49.8657 272.094C50.3549 272.238 50.7541 272.382 51.0635 272.525C51.3728 272.669 51.639 272.885 51.862 273.173C52.085 273.461 52.1965 273.838 52.1965 274.306C52.1965 274.709 52.0922 275.083 51.8836 275.428C51.675 275.773 51.3692 276.05 50.9663 276.259C50.5635 276.46 50.0851 276.561 49.5312 276.561Z" fill="#FAF8F5"/>
<path d="M55.2652 271.748V274.64C55.2652 274.842 55.3119 274.989 55.4054 275.083C55.5062 275.169 55.6716 275.212 55.9018 275.212H56.6032V276.486H55.6536C54.3803 276.486 53.7436 275.867 53.7436 274.63V271.748H53.0315V270.507H53.7436V269.029H55.2652V270.507H56.6032V271.748H55.2652Z" fill="#FAF8F5"/>
<path d="M57.3013 273.475C57.3013 272.871 57.42 272.335 57.6574 271.867C57.902 271.4 58.2294 271.04 58.6394 270.788C59.0567 270.536 59.5207 270.41 60.0314 270.41C60.4775 270.41 60.8659 270.5 61.1969 270.68C61.535 270.86 61.8047 271.087 62.0062 271.36V270.507H63.5277V276.486H62.0062V275.612C61.8119 275.892 61.5422 276.126 61.1969 276.313C60.8587 276.493 60.4667 276.583 60.0206 276.583C59.5171 276.583 59.0567 276.453 58.6394 276.194C58.2294 275.935 57.902 275.572 57.6574 275.104C57.42 274.63 57.3013 274.086 57.3013 273.475ZM62.0062 273.497C62.0062 273.13 61.9342 272.817 61.7904 272.558C61.6465 272.292 61.4522 272.09 61.2076 271.953C60.9631 271.81 60.7005 271.738 60.4199 271.738C60.1393 271.738 59.8804 271.806 59.643 271.943C59.4056 272.079 59.2113 272.281 59.0603 272.547C58.9164 272.806 58.8444 273.115 58.8444 273.475C58.8444 273.835 58.9164 274.151 59.0603 274.425C59.2113 274.691 59.4056 274.896 59.643 275.04C59.8876 275.184 60.1465 275.255 60.4199 275.255C60.7005 275.255 60.9631 275.187 61.2076 275.05C61.4522 274.907 61.6465 274.705 61.7904 274.446C61.9342 274.18 62.0062 273.863 62.0062 273.497Z" fill="#FAF8F5"/>
<path d="M66.5139 271.436C66.7081 271.119 66.9599 270.871 67.2692 270.691C67.5858 270.511 67.9455 270.421 68.3483 270.421V272.007H67.9491C67.4743 272.007 67.1146 272.119 66.87 272.342C66.6326 272.565 66.5139 272.953 66.5139 273.507V276.486H65.0032V270.507H66.5139V271.436Z" fill="#FAF8F5"/>
<path d="M71.1248 271.748V274.64C71.1248 274.842 71.1716 274.989 71.2651 275.083C71.3658 275.169 71.5312 275.212 71.7615 275.212H72.4629V276.486H71.5133C70.2399 276.486 69.6033 275.867 69.6033 274.63V271.748H68.8911V270.507H69.6033V269.029H71.1248V270.507H72.4629V271.748H71.1248Z" fill="#FAF8F5"/>
<path d="M310.796 18.6101V20.4985H313.332V21.6963H310.796V23.6926H313.655V24.9227H309.285V17.3799H313.655V18.6101H310.796Z" fill="#FAF8F5"/>
<path d="M318.341 18.8583C319.053 18.8583 319.629 19.0849 320.068 19.5381C320.507 19.9841 320.726 20.61 320.726 21.4157V24.9227H319.215V21.6207C319.215 21.1459 319.097 20.7826 318.859 20.5309C318.622 20.2719 318.298 20.1424 317.888 20.1424C317.471 20.1424 317.14 20.2719 316.895 20.5309C316.658 20.7826 316.539 21.1459 316.539 21.6207V24.9227H315.028V18.9446H316.539V19.6892C316.74 19.4302 316.996 19.2288 317.305 19.0849C317.622 18.9338 317.967 18.8583 318.341 18.8583Z" fill="#FAF8F5"/>
<path d="M321.774 21.9121C321.774 21.3078 321.893 20.7719 322.13 20.3043C322.375 19.8366 322.706 19.477 323.123 19.2252C323.54 18.9734 324.004 18.8475 324.515 18.8475C324.903 18.8475 325.274 18.9338 325.626 19.1065C325.979 19.2719 326.259 19.4949 326.468 19.7755V16.9375H328V24.9227H326.468V24.0379C326.281 24.3328 326.018 24.5702 325.68 24.7501C325.342 24.9299 324.95 25.0199 324.504 25.0199C324.001 25.0199 323.54 24.8904 323.123 24.6314C322.706 24.3724 322.375 24.0091 322.13 23.5415C321.893 23.0667 321.774 22.5236 321.774 21.9121ZM326.479 21.9337C326.479 21.5668 326.407 21.2538 326.263 20.9949C326.119 20.7287 325.925 20.5273 325.68 20.3906C325.436 20.2467 325.173 20.1748 324.893 20.1748C324.612 20.1748 324.353 20.2431 324.116 20.3798C323.878 20.5165 323.684 20.7179 323.533 20.9841C323.389 21.2431 323.317 21.5524 323.317 21.9121C323.317 22.2718 323.389 22.5883 323.533 22.8617C323.684 23.1279 323.878 23.3329 324.116 23.4768C324.36 23.6206 324.619 23.6926 324.893 23.6926C325.173 23.6926 325.436 23.6242 325.68 23.4876C325.925 23.3437 326.119 23.1423 326.263 22.8833C326.407 22.6171 326.479 22.3006 326.479 21.9337Z" fill="#FAF8F5"/>
<defs>
<linearGradient id="paint0_linear_218_2192" x1="43.3594" y1="262.184" x2="186.554" y2="-21.1058" gradientUnits="userSpaceOnUse">
<stop stop-color="#35B1D0"/>
<stop offset="0.432292" stop-color="#40C6C9"/>
<stop offset="0.671875" stop-color="#32CAA7"/>
<stop offset="1" stop-color="#26CD89"/>
</linearGradient>
<linearGradient id="paint1_linear_218_2192" x1="1" y1="0.644531" x2="304.983" y2="315.412" gradientUnits="userSpaceOnUse">
<stop stop-color="#35B1D0"/>
<stop offset="0.432292" stop-color="#40C6C9"/>
<stop offset="0.671875" stop-color="#32CAA7"/>
<stop offset="1" stop-color="#26CD89"/>
</linearGradient>
</defs>
</svg>
